 <svg version="1.0" xmlns="http://www.w3.org/2000/svg" width="700.000000pt" height="700.000000pt" viewBox="0 0 700.000000 700.000000" preserveAspectRatio="xMidYMid meet">
<metadata>
Created by potrace 1.12, written by Peter Selinger 2001-2015
</metadata>
<g transform="translate(0.000000,700.000000) scale(0.100000,-0.100000)" fill="#ffffff" stroke="none" stroke-width="2">
<path d="M3440 6968 c-30 -36 -38 -48 -110 -168 -30 -51 -62 -103 -70 -115 -8
-13 -40 -65 -70 -115 -64 -106 -57 -96 -135 -223 -33 -54 -67 -109 -75 -122
-8 -13 -40 -65 -70 -115 -30 -51 -62 -103 -70 -115 -8 -13 -33 -53 -55 -90
-22 -37 -48 -79 -57 -94 -9 -14 -23 -36 -30 -48 -7 -12 -38 -63 -68 -114 -65
-107 -59 -98 -135 -222 -33 -54 -67 -110 -76 -125 -9 -15 -80 -133 -159 -262
-165 -272 -160 -262 -225 -372 -27 -45 -52 -85 -56 -88 -4 -3 -13 -17 -18 -30
-6 -14 -29 -52 -51 -85 -22 -33 -44 -69 -50 -80 -5 -11 -20 -36 -32 -57 -47
-75 -124 -200 -143 -232 -11 -19 -36 -59 -55 -91 -19 -31 -43 -71 -53 -88 -10
-18 -25 -44 -35 -59 -14 -22 -58 -93 -132 -217 -9 -14 -30 -48 -48 -76 -40
-63 -44 -131 -9 -168 17 -19 872 -527 1060 -630 17 -10 46 -26 62 -37 17 -11
44 -26 60 -35 17 -8 44 -24 60 -35 17 -11 39 -24 50 -30 11 -5 38 -21 60 -35
22 -13 54 -31 70 -40 32 -17 47 -26 113 -68 24 -15 53 -32 65 -38 12 -5 40
-21 62 -34 22 -14 46 -28 54 -32 8 -4 37 -21 65 -40 28 -18 55 -33 60 -33 5 0
17 -6 25 -14 35 -30 266 -156 288 -156 27 0 49 12 288 155 64 39 131 78 148
88 18 10 44 25 59 35 35 22 370 222 411 245 18 10 44 25 59 35 14 9 94 58 178
107 83 50 163 98 178 107 15 10 36 23 47 28 11 6 36 21 56 33 20 12 105 63
188 112 84 50 163 97 176 105 13 8 72 44 132 79 159 93 197 120 216 153 22 38
21 53 -6 105 -20 38 -179 308 -217 368 -8 13 -62 103 -120 200 -128 215 -119
199 -155 260 -17 27 -34 57 -40 67 -26 45 -162 272 -177 296 -10 15 -23 36
-28 47 -6 11 -21 36 -33 56 -12 20 -53 90 -92 154 -38 64 -79 131 -90 149 -11
18 -67 113 -125 210 -58 97 -113 189 -122 204 -10 15 -23 36 -28 47 -6 11 -21
36 -33 56 -12 20 -53 90 -92 154 -38 64 -80 133 -93 153 -12 21 -27 46 -32 57
-6 11 -18 32 -28 47 -9 15 -57 95 -107 178 -49 84 -97 162 -105 175 -22 35
-192 321 -213 358 -10 18 -25 44 -35 58 -9 15 -32 52 -51 84 -18 31 -40 59
-47 62 -8 3 -14 11 -14 19 0 10 -13 14 -47 13 -41 0 -52 -5 -73 -31z m-42
-1493 c2 -903 1 -990 -14 -1006 -9 -10 -26 -21 -38 -25 -11 -3 -45 -17 -73
-30 -29 -13 -79 -35 -110 -50 -32 -14 -76 -34 -98 -44 -22 -10 -65 -30 -95
-43 -125 -56 -177 -79 -215 -97 -22 -10 -66 -30 -97 -44 -32 -15 -84 -37 -115
-52 -32 -14 -71 -31 -88 -39 -48 -22 -165 -75 -225 -102 -83 -36 -107 -47
-203 -92 -49 -23 -90 -41 -93 -41 -5 0 -141 -63 -176 -81 -24 -12 -38 -11 -38
2 0 11 61 123 98 180 9 15 42 68 72 119 30 50 62 102 70 115 8 12 40 64 70
115 30 50 62 102 70 115 29 44 85 137 103 168 10 18 25 44 35 59 9 14 48 77
85 140 38 62 95 156 127 208 33 52 65 105 72 117 37 62 157 259 208 343 33 52
64 104 70 115 6 11 18 32 28 47 9 15 42 68 72 118 30 51 62 102 70 115 8 13
40 64 70 115 65 109 60 100 135 223 33 54 67 109 75 122 8 13 39 65 68 115 30
50 59 89 65 87 9 -3 13 -258 15 -992z m315 872 c29 -49 62 -106 74 -126 12
-20 27 -45 33 -56 5 -11 18 -32 28 -47 9 -15 51 -84 92 -153 41 -69 83 -138
92 -153 10 -15 23 -36 28 -47 6 -11 21 -36 33 -56 12 -20 63 -105 112 -188 50
-84 97 -163 105 -176 12 -19 168 -280 245 -410 11 -19 58 -98 105 -175 47 -78
93 -156 103 -173 10 -18 26 -45 37 -62 11 -16 25 -39 30 -50 6 -11 21 -36 33
-56 12 -20 54 -89 92 -154 39 -64 78 -129 87 -143 10 -15 25 -41 35 -59 42
-75 147 -249 158 -263 7 -8 15 -26 17 -40 3 -21 -1 -25 -22 -23 -14 2 -43 11
-65 22 -43 21 -131 62 -237 110 -38 17 -98 45 -135 62 -72 32 -171 78 -238
109 -22 11 -65 30 -95 43 -30 14 -86 39 -125 57 -64 30 -175 81 -250 115 -16
7 -59 27 -95 44 -36 16 -95 43 -132 60 -177 80 -205 95 -225 114 l-23 20 0
982 c0 540 3 985 7 988 12 12 43 -25 96 -116z m-318 -3007 c0 -848 -1 -885
-18 -888 -10 -2 -26 3 -35 11 -9 8 -40 28 -69 43 -39 22 -1179 690 -1253 734
-49 30 -240 140 -286 165 -32 17 -53 35 -52 43 4 17 41 38 163 93 50 22 104
47 120 54 17 8 55 25 85 38 105 47 175 78 205 92 48 22 165 75 225 102 30 13
69 30 85 38 17 8 62 28 100 46 39 17 93 42 121 55 28 13 54 24 57 24 3 0 45
18 94 41 146 68 226 105 338 154 33 14 67 30 75 35 8 5 22 8 30 7 13 -2 15
-108 15 -887z m312 859 c38 -17 91 -41 118 -54 28 -13 75 -35 105 -48 72 -33
179 -82 260 -119 126 -59 228 -106 350 -161 68 -31 172 -79 265 -122 39 -18
102 -47 140 -64 39 -18 84 -38 100 -46 17 -8 37 -16 45 -19 8 -3 22 -10 30
-15 27 -16 107 -51 116 -51 6 0 25 -13 44 -28 l34 -29 -93 -54 c-51 -30 -104
-62 -119 -71 -15 -10 -36 -23 -47 -28 -11 -6 -36 -21 -57 -33 -20 -12 -89 -53
-153 -92 -65 -38 -134 -80 -154 -93 -20 -12 -45 -27 -56 -32 -11 -6 -32 -18
-47 -28 -15 -9 -95 -57 -179 -107 -83 -49 -163 -98 -178 -107 -14 -10 -40 -25
-58 -35 -35 -19 -361 -214 -421 -251 -20 -12 -46 -27 -57 -32 -11 -6 -27 -15
-36 -22 -9 -6 -24 -8 -33 -5 -15 6 -16 81 -16 885 0 483 3 882 7 885 10 11 19
9 90 -24z"></path>
<path d="M1397 3112 c-26 -11 -57 -63 -57 -95 0 -24 48 -112 85 -154 5 -6 26
-35 45 -63 19 -28 51 -73 70 -100 19 -27 69 -97 110 -155 41 -58 98 -137 125
-175 28 -38 66 -92 85 -120 19 -28 58 -82 85 -120 28 -38 65 -91 83 -117 19
-26 63 -88 98 -138 35 -49 92 -130 127 -178 34 -48 101 -143 149 -210 48 -67
102 -144 120 -170 18 -26 56 -80 85 -120 91 -125 123 -171 161 -224 20 -29 60
-84 87 -123 96 -135 120 -170 155 -220 19 -28 51 -73 70 -99 19 -27 42 -59 50
-71 8 -13 24 -35 35 -49 12 -14 37 -48 56 -76 20 -27 53 -75 74 -105 21 -30
57 -81 79 -113 22 -32 50 -67 63 -77 13 -10 23 -23 23 -29 0 -7 20 -11 50 -11
37 0 50 4 50 15 0 7 7 18 15 23 13 7 157 202 277 375 18 26 56 79 83 117 28
38 66 92 85 120 19 28 58 81 85 119 28 37 84 116 125 175 41 58 113 160 160
226 47 66 114 160 150 211 36 50 82 114 102 143 42 58 103 145 212 301 12 16
26 35 31 42 6 6 26 35 45 63 19 28 51 73 70 100 19 27 51 72 70 100 19 28 76
106 125 175 50 68 106 147 125 175 19 28 58 82 85 120 28 38 66 92 85 120 59
86 103 148 143 202 65 91 45 180 -44 194 -36 6 -60 -2 -124 -41 -22 -13 -49
-29 -60 -35 -11 -5 -32 -18 -47 -28 -28 -18 -146 -88 -190 -112 -35 -19 -441
-260 -476 -282 -15 -10 -40 -24 -57 -33 -16 -8 -43 -24 -60 -35 -16 -11 -39
-24 -50 -30 -11 -5 -37 -20 -57 -32 -20 -13 -170 -102 -333 -198 -163 -96
-313 -185 -333 -197 -20 -12 -46 -27 -57 -33 -11 -5 -33 -19 -50 -30 -16 -11
-41 -26 -55 -33 -14 -7 -44 -25 -67 -40 -24 -15 -51 -27 -61 -27 -16 0 -143
71 -370 207 -20 12 -46 27 -57 33 -11 5 -38 21 -60 35 -22 14 -49 30 -60 35
-11 6 -32 18 -47 28 -15 9 -149 89 -298 177 -149 88 -288 170 -308 183 -20 12
-46 27 -57 32 -11 6 -33 19 -50 30 -16 11 -48 30 -70 42 -22 12 -48 27 -57 33
-10 5 -136 79 -280 164 -145 85 -270 160 -279 167 -19 17 -97 27 -122 16z
m531 -500 c15 -10 36 -23 47 -29 11 -7 125 -74 253 -150 128 -76 245 -144 260
-152 15 -8 45 -26 67 -40 22 -14 49 -31 60 -37 11 -6 36 -21 55 -32 19 -12 44
-27 55 -32 11 -6 37 -21 57 -33 37 -22 486 -288 523 -310 11 -6 37 -22 58 -36
l37 -24 -2 -625 c-2 -469 -6 -626 -15 -629 -6 -2 -34 29 -62 69 -27 40 -79
114 -115 163 -35 50 -79 112 -98 138 -18 27 -37 54 -43 60 -5 7 -19 26 -31 42
-11 17 -37 54 -57 83 -20 28 -54 76 -74 105 -20 28 -49 70 -65 92 -48 69 -256
359 -265 370 -4 6 -21 30 -38 55 -16 25 -43 64 -60 86 -16 23 -37 52 -45 64
-8 12 -31 44 -50 70 -19 27 -64 90 -100 140 -36 51 -82 115 -102 144 -21 28
-53 74 -72 101 -19 28 -57 82 -85 120 -28 39 -71 100 -97 138 -26 37 -51 70
-55 73 -5 3 -9 12 -9 20 0 19 35 18 68 -4z m3222 3 c0 -16 -8 -28 -176 -262
-60 -84 -147 -207 -194 -273 -47 -66 -120 -169 -162 -228 -43 -59 -91 -125
-106 -147 -16 -22 -46 -65 -67 -95 -21 -30 -56 -80 -77 -110 -22 -30 -60 -85
-86 -121 -26 -36 -78 -110 -117 -165 -38 -54 -101 -143 -140 -196 -38 -54 -86
-120 -105 -148 -19 -28 -51 -73 -70 -100 -19 -27 -57 -81 -85 -120 -88 -125
-125 -170 -140 -170 -13 0 -15 80 -15 624 l0 625 33 24 c17 14 112 71 210 128
98 57 190 112 205 121 25 16 40 24 102 59 14 8 43 26 65 40 22 14 52 32 67 40
29 15 550 322 596 351 15 10 41 24 57 32 17 9 39 21 49 28 119 80 156 95 156
63z"></path>
</g>
</svg>